<?xml version="1.0" encoding="utf-8"?>
<!-- Generator: Adobe Illustrator 18.1.1, SVG Export Plug-In . SVG Version: 6.00 Build 0)  -->
<svg version="1.1" id="Capa_1" xmlns="http://www.w3.org/2000/svg" xmlns:xlink="http://www.w3.org/1999/xlink" x="0px" y="0px"
	 viewBox="0 0 100 100" enable-background="new 0 0 100 100" xml:space="preserve">
<path fill="#212121" d="M12.3,63.9c-0.2,0.6-0.3,1-0.3,1.3c0,2.8-1.5,4.2-4.1,4.9c-1.3,0.3-2.5,0.9-3.7,1.3c-2.5,0.7-4-0.7-3.1-3.1
	c1-2.9,2.3-5.6,3.5-8.5C5.7,57.2,7,54.5,8,51.7c0.3-0.9,0.4-2,0.2-2.9c-1.4-7.1-2.9-14.3-2.7-21.6c0-0.9,0.1-1.8,0.4-2.6
	c0.3-0.7,0.9-1.7,1.4-1.8c0.7-0.1,1.8,0.5,2.2,1.1c1.2,2.2,2.5,4.5,3.2,7c1.6,5.6,0.9,11.2-0.9,16.7c-0.9,2.6-0.7,4.9,0.3,7.5
	c0.2-0.5,0.4-0.8,0.5-1.2c2.2-5.4,4.3-10.9,6.6-16.3c0.5-1.2,1.1-2.3,1.9-3.3c0.6-0.7,1.5-1.5,2.3-1.5c1.3,0,1.4,1.3,1.5,2.4
	c0,1.4,0,2.7,0,4.2c2.4,0,3.2,1.9,3.3,3.6c0.2,2.3,1.4,3.9,2.9,5.5c0.3-1.5,0.6-2.9,1-4.3c0.2-0.8,0.5-1.6,0.9-2.4
	c0.7-1.3,1.8-1.7,3.2-1.4c1.2,0.3,2.5,0.5,3.6,1.1c0.7,0.4,1.4,1.2,1.8,1.9c0.7,1.4,1.1,3,1.5,4.3c1.7-0.1,3.5-0.3,5.1-0.4
	c0.7-0.6,1.5-1.3,2.5-2c0.9-0.6,1.8-1.2,2.8-1.4c0.6-0.2,1.6,0.1,1.9,0.5c0.4,0.4,0.5,1.6,0.1,2c-0.9,1.2-2.1,2.3-3.3,3.3
	c-0.6,0.5-1.5,0.7-2.7,1.2c0.7,0.9,1.2,2.2,1.9,2.3c1,0.1,2.3-0.5,3.2-1.1c0.6-0.4,0.9-1.2,1.4-1.9c0.8-1,1.8-1.1,3.1-1.2
	c2.1-0.2,3.6,0.9,5.3,1.7c0.9,0.4,2,0.4,3,0.5c0.9,0.1,1.9-0.1,2.8-0.1c8.8,0,17.6,0,26.5,0c0.4,0,0.9-0.1,1.2,0.1
	c0.4,0.2,0.9,0.7,0.9,1c0,0.4-0.5,0.9-0.9,1.1c-0.4,0.2-0.9,0.1-1.4,0.1c-8.4,0-16.8,0-25.2,0c-1.4,0-2.8,0.3-4.3,0.2
	c-1.2-0.1-2.4-0.3-3.5-0.7c-0.9-0.3-1.7-0.9-2.6-1.2c-1.9-0.6-3.3-0.3-4.6,1.7c-1.9,2.8-5.4,2.9-8.2,0.6c-1.2,2.4-3.1,3.6-5.8,3.8
	c-0.3,0-0.7,0.5-0.9,0.9c-0.6,1.2-1,2.5-1.7,3.7c-0.6,1-1.2,2.4-2.7,2C36,64,36,62.6,36,61.4c0-1.8,0.2-3.7,0.3-5.5
	c0-0.5,0.1-1-0.1-1.4c-2.2-3.8-1.6-7.6,0-11.4c-0.9-0.8-1.3-0.3-1.5,0.5c-0.5,1.8-0.7,3.7-1.3,5.5c-0.8,2.4-0.8,4.7-0.5,7.1
	c0.2,1.7,0,3.5-0.4,5.2c-0.9,3.2-3.7,3.8-6.1,1.6c-1.9-1.7-3.6-5.3-4.1-8.8c-0.3,0.8-0.4,1.4-0.8,1.9c-0.5,0.6-1.2,1.1-1.8,1.7
	c-0.5-0.6-1.4-1.2-1.6-2c-1-3.6,0-6.7,2.7-9.2c0.9-0.8,1.3-1.6,1.4-2.8c0.2-2.4,0.4-4.9,0.7-7.3c-0.1,0-0.3-0.1-0.4-0.1
	c-0.3,0.7-0.7,1.3-1,2c-2.5,6.3-5,12.5-7.5,18.8c-0.6,1.4-0.6,2.7,0,4.1c0.6,1.3,1,2.7,1.5,4c0.3,0.8,0.4,1.7-0.6,1.9
	c-0.4,0.1-1.2-0.6-1.5-1.2C12.9,65.6,12.7,64.8,12.3,63.9z M3,68.9c0.3,0.2,0.4,0.3,0.4,0.3c0.5-0.1,1-0.4,1.5-0.5
	c3.4-0.6,4.8-2.5,5.3-6c0.4-2.9,0.4-5.4-0.8-8.2C7.3,59.4,5.1,64.2,3,68.9z M7.9,25.8c-0.5,6.6,0.7,13,2.1,19.4
	C11.9,38.5,12,31.9,7.9,25.8z M25.6,58.2c0.9,1.1,1.6,2.3,2.6,3.3c0.9,0.9,1.8,0.7,2.1-0.6c0.3-1.6,0.4-3.3,0.5-4.9
	C29,56.8,27.5,57.4,25.6,58.2z M24.9,55.3c2.3,0.3,3.9-0.5,4.8-2.3c0.8-1.7-0.6-3-1.3-4.5C27.1,50.8,26.1,53,24.9,55.3z M46.7,51.6
	c-1.1,0-2.2,0-3.4,0c-0.1,1.3-0.3,2.5-0.4,3.8C45.2,55.2,46.3,54.1,46.7,51.6z M40.7,55c0-2.4,0-4.6,0-6.8c-0.7,1.5-1.1,3.1-1.5,4.6
	C38.9,54,39.1,54.7,40.7,55z M37.2,49.9c0.1,0,0.3,0.1,0.4,0.1c0.6-1.9,1.2-3.9,1.8-5.8c-0.2-0.1-0.4-0.1-0.6-0.2
	C37.3,45.7,37.2,47.8,37.2,49.9z M26.3,46.8c-1,0.2-1.9,0.2-2,0.4c-0.2,1.2-0.2,2.4-0.3,3.7c0.2,0,0.3,0,0.5,0.1
	C25.1,49.8,25.6,48.6,26.3,46.8z M38.2,60.7c0.1,0,0.2,0.1,0.3,0.1c0.4-1.1,0.9-2.1,1.4-3.3c-0.5-0.2-0.9-0.4-1.4-0.6
	C38.4,58.2,38.3,59.4,38.2,60.7z M24.5,44.6c0.7,0,1.2,0,1.9,0c-0.3-0.9-0.5-1.6-0.9-2.7C25,43,24.8,43.7,24.5,44.6z"/>
</svg>
